<svg width="43" height="38" viewBox="0 0 43 38" fill="none" xmlns="http://www.w3.org/2000/svg">
<path d="M16.752 27.2519C16.5856 27.2519 16.4247 27.1927 16.298 27.0849L11.762 23.2219C11.6845 23.1562 11.6222 23.0744 11.5795 22.9822C11.5367 22.8899 11.5146 22.7895 11.5146 22.6879C11.5146 22.5863 11.5367 22.4858 11.5795 22.3936C11.6222 22.3014 11.6845 22.2196 11.762 22.1539L16.298 18.2909C16.4395 18.1703 16.6231 18.111 16.8084 18.1258C16.9937 18.1406 17.1655 18.2284 17.286 18.3699C17.4065 18.5114 17.4659 18.695 17.4511 18.8802C17.4363 19.0655 17.3485 19.2373 17.207 19.3579L13.298 22.6869L17.207 26.0159C17.3169 26.1086 17.3956 26.2329 17.4324 26.372C17.4691 26.511 17.4622 26.6579 17.4124 26.7929C17.3627 26.9278 17.2727 27.0442 17.1545 27.1261C17.0363 27.2081 16.8958 27.2516 16.752 27.2509V27.2519Z" fill="#FF4815"/>
<path d="M25.708 27.2521C25.5642 27.2528 25.4237 27.2093 25.3055 27.1273C25.1873 27.0454 25.0973 26.929 25.0476 26.7941C24.9978 26.6592 24.9909 26.5122 25.0276 26.3732C25.0644 26.2342 25.1431 26.1098 25.253 26.0171L29.162 22.6881L25.253 19.3591C25.1115 19.2386 25.0237 19.0668 25.0089 18.8815C24.9941 18.6962 25.0535 18.5126 25.174 18.3711C25.2945 18.2296 25.4664 18.1418 25.6516 18.127C25.8369 18.1122 26.0205 18.1716 26.162 18.2921L30.698 22.1551C30.7755 22.2208 30.8378 22.3026 30.8805 22.3949C30.9233 22.4871 30.9454 22.5875 30.9454 22.6891C30.9454 22.7907 30.9233 22.8912 30.8805 22.9834C30.8378 23.0756 30.7755 23.1574 30.698 23.2231L26.162 27.0861C26.0353 27.194 25.8744 27.2532 25.708 27.2531V27.2521Z" fill="#FF4815"/>
<path d="M19.624 30.149C19.575 30.1491 19.526 30.144 19.478 30.134C19.3879 30.1151 19.3025 30.0786 19.2266 30.0267C19.1506 29.9747 19.0856 29.9083 19.0354 29.8312C18.9852 29.7541 18.9506 29.6679 18.9337 29.5774C18.9168 29.4869 18.9179 29.3941 18.937 29.304L21.764 15.881C21.8023 15.6991 21.9114 15.5398 22.0671 15.4383C22.2229 15.3367 22.4126 15.3012 22.5945 15.3395C22.7764 15.3778 22.9357 15.4869 23.0373 15.6426C23.1388 15.7984 23.1743 15.9881 23.136 16.17L20.309 29.593C20.276 29.7502 20.1899 29.8913 20.0651 29.9925C19.9404 30.0938 19.7846 30.149 19.624 30.149Z" fill="#FF4815"/>
<path d="M37.754 37.462H4.707C3.45903 37.4607 2.26256 36.9643 1.38011 36.0819C0.497663 35.1994 0.00132354 34.003 0 32.755L0 4.707C0.00132354 3.45903 0.497663 2.26256 1.38011 1.38011C2.26256 0.497663 3.45903 0.00132354 4.707 0L37.754 0C39.0018 0.00158817 40.198 0.498045 41.0802 1.38046C41.9625 2.26288 42.4587 3.45921 42.46 4.707V32.755C42.4587 34.0028 41.9625 35.1991 41.0802 36.0815C40.198 36.964 39.0018 37.4604 37.754 37.462ZM4.707 1.4C3.83252 1.40238 2.99453 1.75082 2.37617 2.36917C1.75782 2.98753 1.40938 3.82552 1.407 4.7V32.755C1.40938 33.6295 1.75782 34.4675 2.37617 35.0858C2.99453 35.7042 3.83252 36.0526 4.707 36.055H37.754C38.6285 36.0526 39.4665 35.7042 40.0848 35.0858C40.7032 34.4675 41.0516 33.6295 41.054 32.755V4.707C41.0516 3.83252 40.7032 2.99453 40.0848 2.37617C39.4665 1.75782 38.6285 1.40938 37.754 1.407L4.707 1.4Z" fill="#FF4815"/>
<path d="M41.759 11.2249H0.7C0.514348 11.2249 0.336301 11.1512 0.205025 11.0199C0.0737498 10.8886 0 10.7106 0 10.5249C0 10.3393 0.0737498 10.1613 0.205025 10.03C0.336301 9.8987 0.514348 9.82495 0.7 9.82495H41.759C41.9446 9.82495 42.1227 9.8987 42.254 10.03C42.3853 10.1613 42.459 10.3393 42.459 10.5249C42.459 10.7106 42.3853 10.8886 42.254 11.0199C42.1227 11.1512 41.9446 11.2249 41.759 11.2249Z" fill="#FF4815"/>
<path d="M11.977 7.87106C11.5383 7.87106 11.1095 7.74098 10.7448 7.49726C10.38 7.25354 10.0957 6.90714 9.92784 6.50185C9.75997 6.09657 9.71604 5.6506 9.80162 5.22035C9.8872 4.7901 10.0985 4.39489 10.4086 4.0847C10.7188 3.7745 11.114 3.56326 11.5443 3.47768C11.9745 3.3921 12.4205 3.43602 12.8258 3.60389C13.2311 3.77177 13.5775 4.05606 13.8212 4.4208C14.0649 4.78555 14.195 5.21438 14.195 5.65306C14.1942 6.24107 13.9603 6.80476 13.5445 7.22054C13.1287 7.63633 12.565 7.87027 11.977 7.87106ZM11.977 4.83606C11.8156 4.83606 11.6578 4.88392 11.5237 4.97358C11.3895 5.06324 11.2849 5.19068 11.2231 5.33979C11.1614 5.48889 11.1452 5.65297 11.1767 5.81125C11.2082 5.96954 11.2859 6.11494 11.4 6.22906C11.5141 6.34318 11.6595 6.42089 11.8178 6.45238C11.9761 6.48386 12.1402 6.46771 12.2893 6.40595C12.4384 6.34419 12.5658 6.2396 12.6555 6.10541C12.7452 5.97121 12.793 5.81345 12.793 5.65206C12.7927 5.43572 12.7067 5.22833 12.5537 5.07535C12.4007 4.92238 12.1933 4.83633 11.977 4.83606Z" fill="#FF4815"/>
<path d="M5.16099 7.84909C4.72231 7.84909 4.29349 7.719 3.92874 7.47529C3.56399 7.23157 3.2797 6.88517 3.11183 6.47988C2.94395 6.07459 2.90003 5.62863 2.98561 5.19838C3.07119 4.76813 3.28244 4.37292 3.59263 4.06272C3.90282 3.75253 4.29803 3.54129 4.72828 3.45571C5.15853 3.37012 5.6045 3.41405 6.00979 3.58192C6.41507 3.7498 6.76148 4.03408 7.00519 4.39883C7.24891 4.76358 7.379 5.19241 7.379 5.63109C7.3782 6.21909 7.14426 6.78279 6.72848 7.19857C6.3127 7.61436 5.749 7.84829 5.16099 7.84909ZM5.16099 4.81409C4.9996 4.81409 4.84184 4.86194 4.70765 4.95161C4.57346 5.04127 4.46887 5.16871 4.40711 5.31782C4.34535 5.46692 4.32919 5.63099 4.36067 5.78928C4.39216 5.94757 4.46988 6.09297 4.584 6.20709C4.69811 6.32121 4.84351 6.39892 5.0018 6.43041C5.16009 6.46189 5.32416 6.44573 5.47326 6.38397C5.62237 6.32221 5.74981 6.21762 5.83947 6.08343C5.92913 5.94924 5.97699 5.79148 5.97699 5.63009C5.97647 5.41383 5.89032 5.20659 5.73741 5.05367C5.58449 4.90076 5.37725 4.81462 5.16099 4.81409Z" fill="#FF4815"/>
<path d="M18.793 7.89108C18.3543 7.89108 17.9255 7.761 17.5607 7.51728C17.196 7.27356 16.9117 6.92716 16.7438 6.52187C16.576 6.11658 16.532 5.67062 16.6176 5.24037C16.7032 4.81012 16.9144 4.41491 17.2246 4.10471C17.5348 3.79452 17.93 3.58328 18.3603 3.4977C18.7905 3.41212 19.2365 3.45604 19.6418 3.62391C20.0471 3.79179 20.3935 4.07608 20.6372 4.44082C20.8809 4.80557 21.011 5.2344 21.011 5.67308C21.0102 6.26108 20.7763 6.82478 20.3605 7.24056C19.9447 7.65635 19.381 7.89028 18.793 7.89108ZM18.793 4.85608C18.6316 4.85608 18.4738 4.90394 18.3397 4.9936C18.2055 5.08326 18.1009 5.2107 18.0391 5.35981C17.9774 5.50891 17.9612 5.67298 17.9927 5.83127C18.0242 5.98956 18.1019 6.13496 18.216 6.24908C18.3301 6.3632 18.4755 6.44091 18.6338 6.4724C18.7921 6.50388 18.9562 6.48772 19.1053 6.42596C19.2544 6.3642 19.3818 6.25962 19.4715 6.12542C19.5611 5.99123 19.609 5.83347 19.609 5.67208C19.6085 5.45592 19.5223 5.24877 19.3694 5.09602C19.2164 4.94326 19.0092 4.85734 18.793 4.85708V4.85608Z" fill="#FF4815"/>
</svg>
